<?xml version="1.0" standalone="no"?><!DOCTYPE svg PUBLIC "-//W3C//DTD SVG 1.1//EN" "http://www.w3.org/Graphics/SVG/1.1/DTD/svg11.dtd"><svg t="1705491642741" class="icon" viewBox="0 0 1024 1024" version="1.1" xmlns="http://www.w3.org/2000/svg" p-id="2472" xmlns:xlink="http://www.w3.org/1999/xlink" width="200" height="200"><path d="M768 749.226667H234.666667c-11.733333 0-21.333333-9.6-21.333334-21.333334s9.6-21.333333 21.333334-21.333333h533.333333c11.733333 0 21.333333 9.6 21.333333 21.333333s-9.6 21.333333-21.333333 21.333334zM266.666667 663.04c-7.04 0-13.866667-2.773333-18.986667-7.893333-7.466667-7.253333-9.813333-18.133333-6.613333-27.946667l26.666666-79.786667c1.28-4.053333 3.626667-7.68 6.613334-10.666666L605.44 202.666667c5.12-5.12 11.946667-8.106667 19.413333-8.106667 7.253333 0 14.08 2.773333 19.2 8.106667l52.266667 52.693333c10.453333 10.453333 10.453333 27.733333 0 38.4L365.013333 627.84c-2.986667 2.986667-6.613333 5.333333-10.453333 6.613333l-78.933333 27.093334c-2.986667 1.066667-5.973333 1.493333-8.96 1.493333z m40.533333-98.56l-15.573333 46.506667 45.653333-15.573334 317.866667-320.853333-30.293334-30.72L307.2 564.48z m27.52 33.28c0 0.213333 0 0.213333 0 0z m-29.866667-30.933333c-0.213333 0-0.213333 0 0 0zM613.546667 232.533333c0.213333 0 0.213333 0 0 0z m7.04-14.933333z" fill="#667685" p-id="2473"></path><path d="M624 357.333333c-5.546667 0-10.88-2.133333-15.146667-6.4l-60.373333-61.013333a21.248 21.248 0 1 1 30.293333-29.866667l60.373334 61.013334c8.32 8.32 8.106667 21.973333-0.213334 30.08a20.48 20.48 0 0 1-14.933333 6.186666z" fill="#667685" p-id="2474"></path></svg>