<?xml version="1.0" standalone="no"?><!DOCTYPE svg PUBLIC "-//W3C//DTD SVG 1.1//EN" "http://www.w3.org/Graphics/SVG/1.1/DTD/svg11.dtd"><svg t="1705671056751" class="icon" viewBox="0 0 1454 1024" version="1.1" xmlns="http://www.w3.org/2000/svg" p-id="7365" xmlns:xlink="http://www.w3.org/1999/xlink" width="283.984375" height="200"><path d="M325.774 655.24c9.57 8.247 24.082 7.244 32.405-2.25 8.307-9.473 7.31-23.875-2.261-32.126L334.03 602l21.888-18.863c9.572-8.25 10.568-22.653 2.261-32.128-8.323-9.493-22.836-10.498-32.405-2.25l-26.76 23.063-26.76-23.063c-9.57-8.246-24.082-7.241-32.405 2.25-8.307 9.474-7.31 23.878 2.261 32.128L263.997 602l-21.887 18.863c-9.572 8.25-10.568 22.652-2.261 32.127 8.323 9.493 22.836 10.498 32.405 2.25l26.76-23.063 26.76 23.063z m551.762-104.228c-8.323-9.493-22.835-10.498-32.404-2.25l-26.76 23.063-26.761-23.063c-9.57-8.247-24.082-7.241-32.405 2.25-8.306 9.473-7.31 23.877 2.262 32.127l21.888 18.863-21.888 18.863c-9.573 8.25-10.568 22.652-2.262 32.127 8.323 9.494 22.836 10.499 32.405 2.25l26.76-23.062 26.76 23.063c9.57 8.246 24.082 7.243 32.405-2.25 8.307-9.474 7.311-23.876-2.261-32.128l-21.887-18.863 21.887-18.863c9.574-8.25 10.57-22.654 2.261-32.127zM772.06 871.73c-21.232 0-41.357 7.143-57.632 19.844a21.984 21.984 0 0 0-4.629 3.782c-0.098 0.087-0.205 0.161-0.303 0.248-0.138 0.125-0.232 0.276-0.366 0.402-0.022 0.027-0.052 0.046-0.075 0.073-9.244 10.97-22.807 17.4-37.469 17.4-12.263 0-23.767-4.481-32.688-12.473-0.177-0.16-0.384-0.261-0.566-0.414-0.009-0.01-0.014-0.023-0.022-0.033-17.622-20.908-43.652-33.25-71.665-33.25-23.413 0-45.532 8.614-62.564 23.874-0.572 0.512-1.012 1.107-1.518 1.662a22.29 22.29 0 0 0-3.39 3.232c-9.243 10.97-22.807 17.4-37.468 17.4-12.263 0-23.767-4.48-32.688-12.473-0.179-0.159-0.386-0.26-0.568-0.414-0.009-0.01-0.014-0.023-0.022-0.032-17.622-20.908-43.652-33.251-71.663-33.251-23.414 0-45.534 8.614-62.566 23.874-9.13 8.18-9.842 22.148-1.592 31.198s22.34 9.757 31.469 1.578c8.92-7.992 20.425-12.472 32.687-12.472 14.662 0 28.224 6.431 37.468 17.4a22.21 22.21 0 0 0 3.39 3.231c0.505 0.556 0.945 1.152 1.517 1.664 17.032 15.26 39.152 23.873 62.565 23.873 28.012 0 54.042-12.343 71.664-33.25 0.008-0.01 0.013-0.024 0.023-0.034 0.18-0.153 0.39-0.254 0.567-0.414 8.921-7.992 20.423-12.472 32.688-12.472 14.661 0 28.223 6.432 37.469 17.4a22.29 22.29 0 0 0 3.39 3.232c0.506 0.555 0.945 1.151 1.519 1.664 17.032 15.26 39.152 23.872 62.564 23.872 26.368 0 50.887-11.039 68.381-29.76 8.837-7.674 20.094-11.987 32.093-11.987 14.662 0 28.224 6.43 37.47 17.4 7.89 9.362 21.94 10.61 31.384 2.787 9.441-7.823 10.7-21.752 2.811-31.114-17.622-20.903-43.652-33.247-71.665-33.247z m669.638-629.676c-15.095-1.953-32.17-6.493-32.17-6.493-42.982-11.2-90.12-51.916-112.706-97.066-22.586-45.145-69.337-99.486-69.337-99.486C1192 5.09 1176.16-1.512 1143.46 0.275c-32.706 1.788-41.268 32.028-41.268 32.028l-85.585 206.671-32.907 76.513c-104.34-102.24-247.77-165.418-406.13-165.418C258.591 150.069 0 406.21 0 722.185c0 97.926 24.883 192.325 71.646 276.201 5.209 9.342 17.07 12.729 26.494 7.567 9.423-5.164 12.84-16.924 7.63-26.266-43.592-78.187-66.78-166.157-66.78-257.5 0-294.618 241.128-533.46 538.581-533.46 297.454 0 538.582 238.842 538.582 533.46 0 78.509-17.122 154.582-49.737 224.222a530.172 530.172 0 0 1-25.551 47.978c-5.505 9.173-2.469 21.034 6.786 26.492 9.252 5.46 21.217 2.447 26.722-6.726a569.066 569.066 0 0 0 27.408-51.466c34.992-74.715 53.363-156.34 53.363-240.502 0-136.379-48.25-261.547-128.66-359.848l1.78 1.75 54.116-129.809c11.136-18.483 27.534-23.451 27.534-23.451 36.957-9.287 60.316 14.515 60.316 14.515 34.154 22.72 56.486 67.257 129.48 81.424 72.996 14.161 128.71-29.928 143.743-44.879 18.515-18.416-1.755-19.833-1.755-19.833z" p-id="7366" fill="#bfbfbf"></path></svg>