<?xml version="1.0" standalone="no"?><!DOCTYPE svg PUBLIC "-//W3C//DTD SVG 1.1//EN" "http://www.w3.org/Graphics/SVG/1.1/DTD/svg11.dtd"><svg t="1705671033043" class="icon" viewBox="0 0 1374 1024" version="1.1" xmlns="http://www.w3.org/2000/svg" p-id="7201" xmlns:xlink="http://www.w3.org/1999/xlink" width="268.359375" height="200"><path d="M1374.937713 861.366478c0 89.868868-306.799658 162.619172-689.348598 162.619173S0 951.235346 0 861.366478s306.799658-162.633522 689.377296-162.633521c378.760758 0 685.560416 72.750305 685.560417 162.633521z" fill="#E8E8E8" p-id="7202"></path><path d="M267.210291 128.755125a2.95593 2.95593 0 0 1-2.869834-2.955929V6.901952a3.056374 3.056374 0 0 1 0.717458-2.295868 2.869835 2.869835 0 0 1 2.023233-0.990093 2.984628 2.984628 0 0 1 3.113771 2.740692v119.456862a2.95593 2.95593 0 0 1-2.984628 2.94158z" fill="#DFDFDF" p-id="7203"></path><path d="M207.359892 69.277805a2.869835 2.869835 0 0 1-2.869834-2.740692 2.95593 2.95593 0 0 1 2.740692-3.142469h119.442512a2.95593 2.95593 0 0 1-0.157841 5.883161z" fill="#DFDFDF" p-id="7204"></path><path d="M1215.79104 717.731261a1.879742 1.879742 0 0 1-1.865392-1.865392v-57.913261a1.865392 1.865392 0 0 1 1.865392-1.650154 1.879742 1.879742 0 0 1 1.879742 1.779297v57.784118a1.879742 1.879742 0 0 1-1.865393 1.879741z" fill="#DFDFDF" p-id="7205"></path><path d="M1186.83441 688.760282a1.894091 1.894091 0 0 1 0.114793-3.759483h57.827166a1.937138 1.937138 0 0 1 2.094979 1.764948 2.138027 2.138027 0 0 1-1.779297 1.980186h-58.257641z" fill="#DFDFDF" p-id="7206"></path><path d="M1145.20746 38.599274c42.602693 0 35.973376 65.647464 35.973376 114.391604v114.79338a21.15068 21.15068 0 0 1-21.15068 21.15068h-128.195508v-135.929711a113.989827 113.989827 0 0 1 113.358463-114.391604" fill="#F5F5F5" p-id="7207"></path><path d="M820.471337 763.734708a21.15068 21.15068 0 0 1 21.15068 21.150681v26.244636a114.391603 114.391603 0 0 0 113.358463 114.391604H327.390721a114.405953 114.405953 0 0 1-114.420302-114.420302v-26.244637a21.15068 21.15068 0 0 1 21.15068-21.15068z" fill="#FFFFFF" p-id="7208"></path><path d="M1146.398442 38.599274l-657.593879 0.817903a114.434651 114.434651 0 0 0-114.420302 114.463349v609.839833h442.19845a21.15068 21.15068 0 0 1 21.15068 21.150681v26.258985a114.420302 114.420302 0 0 0 113.358463 114.434651 114.420302 114.420302 0 0 0 113.358463-114.434651v-136.030155h0.114794l0.975744-385.217886 0.473522-136.030156c0-47.352269 12.182447-115.3243 80.556255-115.3243" fill="#FFFFFF" p-id="7209"></path><path d="M449.459131 390.110954a4.706529 4.706529 0 1 1 0-9.398708h453.146869a4.706529 4.706529 0 1 1 0 9.398708z" fill="#CCCCCC" p-id="7210"></path><path d="M449.459131 476.19164a4.706529 4.706529 0 1 1 0-9.398708h453.146869a4.706529 4.706529 0 1 1 0 9.398708z" fill="#CCCCCC" p-id="7211"></path><path d="M448.770371 648.38171a4.763925 4.763925 0 0 1 0-9.398708h387.083279a4.763925 4.763925 0 0 1 0 9.398708z" fill="#CCCCCC" p-id="7212"></path><path d="M449.774813 562.301024a4.706529 4.706529 0 1 1 0-9.398708h281.415972a4.706529 4.706529 0 1 1 0 9.398708z" fill="#CCCCCC" p-id="7213"></path><path d="M953.861245 267.655115a2.869835 2.869835 0 0 1-2.869835-2.798088v-118.337626a2.783739 2.783739 0 0 1 2.798089-2.554153 2.869835 2.869835 0 0 1 2.869834 2.697645v118.179785a2.869835 2.869835 0 0 1-2.869834 2.869834z" fill="#CCCCCC" p-id="7214"></path><path d="M991.183442 267.640766a2.869835 2.869835 0 0 1-2.869834-2.869834v-118.323277a2.869835 2.869835 0 0 1 2.697644-3.085072 2.869835 2.869835 0 0 1 2.869835 2.697644v118.725054a2.869835 2.869835 0 0 1-2.869835 2.869834z" fill="#CCCCCC" p-id="7215"></path><path d="M916.539047 222.799602a2.869835 2.869835 0 0 1-2.869835-2.869834v-73.410367a2.869835 2.869835 0 0 1 5.639225 0.157841v73.324271a2.869835 2.869835 0 0 1-2.76939 2.798089z" fill="#CCCCCC" p-id="7216"></path></svg>