<?xml version="1.0" standalone="no"?><!DOCTYPE svg PUBLIC "-//W3C//DTD SVG 1.1//EN" "http://www.w3.org/Graphics/SVG/1.1/DTD/svg11.dtd"><svg t="1705670989512" class="icon" viewBox="0 0 1038 1024" version="1.1" xmlns="http://www.w3.org/2000/svg" p-id="5993" xmlns:xlink="http://www.w3.org/1999/xlink" width="202.734375" height="200"><path d="M810.666667 995.555556H174.933333C149.333333 995.555556 128 974.222222 128 948.622222V85.333333c0-39.822222 32.711111-71.111111 72.533333-71.111111h413.866667c12.8 0 24.177778 4.266667 34.133333 14.222222L867.555556 243.2c8.533333 8.533333 14.222222 21.333333 14.222222 32.711111V924.444444c0 38.4-32.711111 71.111111-71.111111 71.111112zM200.533333 42.666667C176.355556 42.666667 156.444444 62.577778 156.444444 85.333333v863.288889c0 9.955556 8.533333 18.488889 18.488889 18.488889H810.666667c24.177778 0 44.088889-19.911111 44.088889-42.666667V277.333333c0-5.688889-1.422222-9.955556-5.688889-12.8L627.2 48.355556c-4.266667-4.266667-8.533333-5.688889-14.222222-5.688889h-412.444445z" fill="#DDDDDD" p-id="5994"></path><path d="M866.133333 281.6H657.066667c-25.6 0-46.933333-21.333333-46.933334-46.933333V29.866667h28.444445v204.8c0 9.955556 8.533333 18.488889 18.488889 18.488889h209.066666v28.444444zM726.755556 698.311111H283.022222c-8.533333 0-14.222222-5.688889-14.222222-14.222222s5.688889-14.222222 14.222222-14.222222h443.733334c8.533333 0 14.222222 5.688889 14.222222 14.222222s-5.688889 14.222222-14.222222 14.222222zM726.755556 819.2H283.022222c-8.533333 0-14.222222-5.688889-14.222222-14.222222s5.688889-14.222222 14.222222-14.222222h443.733334c8.533333 0 14.222222 5.688889 14.222222 14.222222s-5.688889 14.222222-14.222222 14.222222z" fill="#DDDDDD" p-id="5995"></path></svg>