<?xml version="1.0" standalone="no"?><!DOCTYPE svg PUBLIC "-//W3C//DTD SVG 1.1//EN" "http://www.w3.org/Graphics/SVG/1.1/DTD/svg11.dtd"><svg t="1705670963916" class="icon" viewBox="0 0 1024 1024" version="1.1" xmlns="http://www.w3.org/2000/svg" p-id="5688" xmlns:xlink="http://www.w3.org/1999/xlink" width="200" height="200"><path d="M32 704a480 128 0 1 0 960 0 480 128 0 1 0-960 0Z" fill="#EBECF0" p-id="5689"></path><path d="M192 416l160-192h320l160 192v288H192z" fill="#FFFFFF" p-id="5690"></path><path d="M642.016 208c21.76 0 42.496 8.864 57.088 23.904l3.84 4.256L864 409.728V448h-32v-25.696L678.912 257.28a48 48 0 0 0-32.16-17.056l-4.736-0.224h-260.032c-12.672 0-24.736 4.992-34.08 14.24L192 422.272V448H160v-38.272L320.512 236.8a80 80 0 0 1 55.552-28.576l5.92-0.224h260.032z" fill="#AAADBD" p-id="5691"></path><path d="M160 416h224v64a32 32 0 0 0 32 32h192a32 32 0 0 0 32-32v-64h224v256a64 64 0 0 1-64 64H224a64 64 0 0 1-64-64v-256z" fill="#F2F3F5" p-id="5692"></path><path d="M384 416v64a32 32 0 0 0 32 32h192a32 32 0 0 0 32-32v-64h224v256a64 64 0 0 1-64 64H224a64 64 0 0 1-64-64v-256h224z m448 32h-160v32a64 64 0 0 1-59.2 63.84L608 544h-192a64 64 0 0 1-63.84-59.2L352 480v-32H192v224a32 32 0 0 0 28.256 31.776L224 704h576a32 32 0 0 0 31.776-28.256L832 672v-224z" fill="#AAADBD" p-id="5693"></path></svg>