<?xml version="1.0" standalone="no"?><!DOCTYPE svg PUBLIC "-//W3C//DTD SVG 1.1//EN" "http://www.w3.org/Graphics/SVG/1.1/DTD/svg11.dtd"><svg t="1712663394954" class="icon" viewBox="0 0 1024 1024" version="1.1" xmlns="http://www.w3.org/2000/svg" p-id="6283" xmlns:xlink="http://www.w3.org/1999/xlink" width="200" height="200"><path d="M476.553846 748.307692c0 19.692308 15.753846 35.446154 35.446154 35.446154s35.446154-15.753846 35.446154-35.446154-15.753846-35.446154-35.446154-35.446154-35.446154 15.753846-35.446154 35.446154z m0 0" p-id="6284" fill="#ffffff"></path><path d="M512 984.615385c-63.015385 0-126.030769-11.815385-185.107692-35.446154-55.138462-23.630769-106.338462-59.076923-149.661539-102.4-43.323077-43.323077-78.769231-94.523077-102.4-149.661539-23.630769-59.076923-35.446154-122.092308-35.446154-185.107692s11.815385-126.030769 35.446154-185.107692c23.630769-55.138462 59.076923-106.338462 102.4-149.661539 43.323077-43.323077 94.523077-78.769231 149.661539-102.4C385.969231 51.2 448.984615 39.384615 512 39.384615s126.030769 11.815385 185.107692 35.446154c55.138462 23.630769 106.338462 59.076923 149.661539 102.4 43.323077 43.323077 78.769231 94.523077 102.4 149.661539 23.630769 59.076923 35.446154 122.092308 35.446154 185.107692s-11.815385 126.030769-35.446154 185.107692c-23.630769 55.138462-59.076923 106.338462-102.4 149.661539-43.323077 43.323077-94.523077 78.769231-149.661539 102.4-59.076923 23.630769-122.092308 35.446154-185.107692 35.446154z m0-878.276923C287.507692 106.338462 106.338462 287.507692 106.338462 512S287.507692 917.661538 512 917.661538 917.661538 736.492308 917.661538 512 736.492308 106.338462 512 106.338462z m0 0" p-id="6285" fill="#ffffff"></path><path d="M512 669.538462c-19.692308 0-35.446154-15.753846-35.446154-35.446154V590.769231c0-23.630769 7.876923-47.261538 27.569231-63.015385 11.815385-11.815385 31.507692-23.630769 47.261538-31.507692 39.384615-23.630769 63.015385-35.446154 63.015385-82.707692 0-55.138462-47.261538-102.4-102.4-102.4-55.138462 0-102.4 47.261538-102.4 102.4 0 19.692308-15.753846 35.446154-35.446154 35.446153s-35.446154-15.753846-35.446154-35.446153c0-94.523077 74.830769-169.353846 169.353846-169.353847s169.353846 74.830769 169.353847 169.353847c0 86.646154-59.076923 122.092308-94.523077 141.784615-31.507692 15.753846-39.384615 23.630769-39.384616 35.446154v43.323077c3.938462 19.692308-11.815385 35.446154-31.507692 35.446154z m0 0" p-id="6286" fill="#ffffff"></path></svg>